<svg width="29" height="28" viewBox="0 0 29 28" fill="none" xmlns="http://www.w3.org/2000/svg">
<g clip-path="url(#clip0_244_613)">
<path d="M14.8608 0C7.12892 0 0.86084 6.26808 0.86084 14C0.86084 20.5654 5.38116 26.0747 11.479 27.5878V18.2784H8.5922V14H11.479V12.1565C11.479 7.39144 13.6356 5.1828 18.3138 5.1828C19.2008 5.1828 20.7313 5.35696 21.3574 5.53056V9.40856C21.027 9.37384 20.453 9.35648 19.7401 9.35648C17.4447 9.35648 16.5576 10.2262 16.5576 12.4869V14H21.1306L20.3449 18.2784H16.5576V27.8975C23.4899 27.0603 28.8614 21.1579 28.8614 14C28.8608 6.26808 22.5928 0 14.8608 0Z" fill="#828282"/>
</g>
<defs>
<clipPath id="clip0_244_613">
<rect width="28" height="28" fill="white" transform="translate(0.86084)"/>
</clipPath>
</defs>
</svg>
