<svg width="48" height="48" viewBox="0 0 48 48" fill="none" xmlns="http://www.w3.org/2000/svg">
<path d="M23.9551 0.748047C10.9768 0.748047 0.455566 11.3081 0.455566 24.3344C0.455566 35.3954 8.04309 44.6771 18.2785 47.2263V31.5424H13.4329V24.3344H18.2785V21.2285C18.2785 13.2007 21.8984 9.4797 29.751 9.4797C31.24 9.4797 33.8089 9.77312 34.8598 10.0656V16.599C34.3052 16.5405 33.3417 16.5113 32.1452 16.5113C28.2922 16.5113 26.8032 17.9764 26.8032 21.7852V24.3344H34.4791L33.1603 31.5424H26.8032V47.748C38.4393 46.3376 47.4556 36.3936 47.4556 24.3344C47.4546 11.3081 36.9334 0.748047 23.9551 0.748047Z" fill="white"/>
</svg>
