<svg width="48" height="48" viewBox="0 0 48 48" fill="none" xmlns="http://www.w3.org/2000/svg">
<g clip-path="url(#clip0_357_581)">
<path d="M24.2842 5.11318C30.5631 5.11318 31.3066 5.14072 33.776 5.25088C36.0709 5.35185 37.3102 5.7374 38.1363 6.05869C39.2287 6.48096 40.0182 6.99502 40.8352 7.81201C41.6613 8.63818 42.1662 9.41846 42.5885 10.5108C42.9098 11.337 43.2953 12.5854 43.3963 14.8712C43.5065 17.3497 43.534 18.0933 43.534 24.363C43.534 30.6419 43.5065 31.3855 43.3963 33.8548C43.2953 36.1497 42.9098 37.389 42.5885 38.2151C42.1662 39.3075 41.6521 40.097 40.8352 40.914C40.009 41.7401 39.2287 42.245 38.1363 42.6673C37.3102 42.9886 36.0617 43.3741 33.776 43.4751C31.2975 43.5853 30.5539 43.6128 24.2842 43.6128C18.0053 43.6128 17.2617 43.5853 14.7924 43.4751C12.4975 43.3741 11.2582 42.9886 10.432 42.6673C9.33965 42.245 8.5502 41.731 7.7332 40.914C6.90703 40.0878 6.40215 39.3075 5.97988 38.2151C5.65859 37.389 5.27305 36.1405 5.17207 33.8548C5.06191 31.3763 5.03438 30.6327 5.03438 24.363C5.03438 18.0841 5.06191 17.3405 5.17207 14.8712C5.27305 12.5763 5.65859 11.337 5.97988 10.5108C6.40215 9.41846 6.91621 8.629 7.7332 7.81201C8.55938 6.98584 9.33965 6.48096 10.432 6.05869C11.2582 5.7374 12.5066 5.35185 14.7924 5.25088C17.2617 5.14072 18.0053 5.11318 24.2842 5.11318ZM24.2842 0.881348C17.9043 0.881348 17.1057 0.908887 14.5996 1.01904C12.1027 1.1292 10.3861 1.53311 8.89902 2.11143C7.34766 2.71728 6.03496 3.51592 4.73145 4.82861C3.41875 6.13213 2.62012 7.44482 2.01426 8.98701C1.43594 10.4833 1.03203 12.1907 0.921875 14.6876C0.811719 17.2028 0.78418 18.0015 0.78418 24.3813C0.78418 30.7612 0.811719 31.5599 0.921875 34.0659C1.03203 36.5628 1.43594 38.2794 2.01426 39.7665C2.62012 41.3179 3.41875 42.6306 4.73145 43.9341C6.03496 45.2376 7.34766 46.0454 8.88984 46.6421C10.3861 47.2204 12.0936 47.6243 14.5904 47.7345C17.0965 47.8446 17.8951 47.8722 24.275 47.8722C30.6549 47.8722 31.4535 47.8446 33.9596 47.7345C36.4564 47.6243 38.173 47.2204 39.6602 46.6421C41.2023 46.0454 42.515 45.2376 43.8186 43.9341C45.1221 42.6306 45.9299 41.3179 46.5266 39.7757C47.1049 38.2794 47.5088 36.572 47.6189 34.0751C47.7291 31.569 47.7566 30.7704 47.7566 24.3905C47.7566 18.0106 47.7291 17.212 47.6189 14.706C47.5088 12.2091 47.1049 10.4925 46.5266 9.00537C45.9482 7.44482 45.1496 6.13213 43.8369 4.82861C42.5334 3.5251 41.2207 2.71729 39.6785 2.12061C38.1822 1.54229 36.4748 1.13838 33.9779 1.02822C31.4627 0.908887 30.6641 0.881348 24.2842 0.881348Z" fill="#F9F9F9"/>
<path d="M24.2842 12.3101C17.6197 12.3101 12.2129 17.7169 12.2129 24.3813C12.2129 31.0458 17.6197 36.4526 24.2842 36.4526C30.9486 36.4526 36.3555 31.0458 36.3555 24.3813C36.3555 17.7169 30.9486 12.3101 24.2842 12.3101ZM24.2842 32.2116C19.9605 32.2116 16.4539 28.705 16.4539 24.3813C16.4539 20.0577 19.9605 16.5511 24.2842 16.5511C28.6078 16.5511 32.1145 20.0577 32.1145 24.3813C32.1145 28.705 28.6078 32.2116 24.2842 32.2116Z" fill="#F9F9F9"/>
<path d="M39.651 11.8328C39.651 13.3934 38.3842 14.651 36.8328 14.651C35.2723 14.651 34.0146 13.3842 34.0146 11.8328C34.0146 10.2723 35.2814 9.01465 36.8328 9.01465C38.3842 9.01465 39.651 10.2814 39.651 11.8328Z" fill="#F9F9F9"/>
</g>
<defs>
<clipPath id="clip0_357_581">
<rect width="47" height="47" fill="white" transform="translate(0.78418 0.881348)"/>
</clipPath>
</defs>
</svg>
